# xmcd CD database file
#
# Track frame offsets:
#	182
#	23082
#	36400
#	48292
#	59690
#	93595
#	114042
#	197375
#
# Disc length: 3066 seconds
#
# Revision: 4
# Processed by: cddbd v1.5.1PL0 Copyright (c) Steve Scherf et al.
# Submitted via: CDex 1.51
#
DISCID=610bf808
DTITLE=Various Artist - I miti del rock live n.57 - Rhythm'n'Soul
DYEAR=1900
DGENRE=Rhythmic Soul
TTITLE0=Ray Charles - What'd I say (R. Charles)
TTITLE1=Ben E. King - Stand by me (King/Glick)
TTITLE2=LaVern Backer - Saved (Leiber/Stoller)
TTITLE3=Tina Turner Ikettes - I'm blue (I. Turner)
TTITLE4=Sam and Dave - Hold on (Hayes/Porter)
TTITLE5=Aretha Franklin - Respect (O. Redding)
TTITLE6=James Brown - The funky medley (Let yourself go/There was a time/I feel allright/Cold sweat)
TTITLE7=James Brown - A man's world (Jones/Brown)
EXTD=
EXTT0=
EXTT1=
EXTT2=
EXTT3=
EXTT4=
EXTT5=
EXTT6=
EXTT7=
PLAYORDER=
